<svg id="svg" version="1.1" xmlns="http://www.w3.org/2000/svg" xmlns:xlink="http://www.w3.org/1999/xlink" width="400" height="83.07501549907005" viewBox="0, 0, 400,83.07501549907005"><g id="svgg"><path id="path0" d="M0.000 41.500 L 0.000 83.000 200.000 83.000 L 400.000 83.000 400.000 41.500 L 400.000 0.000 200.000 0.000 L 0.000 0.000 0.000 41.500 M398.084 2.042 C 398.134 2.248,398.154 20.117,398.129 41.750 L 398.083 81.083 199.917 81.083 L 1.750 81.083 1.707 41.583 C 1.684 19.858,1.700 1.990,1.744 1.875 C 1.807 1.708,41.593 1.667,199.908 1.667 L 397.994 1.667 398.084 2.042 M9.833 41.500 L 9.833 73.000 199.917 73.000 L 390.000 73.000 390.000 41.500 L 390.000 10.000 199.917 10.000 L 9.833 10.000 9.833 41.500 M388.625 41.458 L 388.583 71.583 199.917 71.583 L 11.250 71.583 11.208 41.458 L 11.166 11.333 199.917 11.333 L 388.668 11.333 388.625 41.458 M123.500 40.667 L 123.500 55.167 125.240 55.167 L 126.981 55.167 127.035 47.958 L 127.090 40.750 127.540 39.797 C 129.675 35.284,136.307 34.953,138.590 39.246 C 139.366 40.706,139.500 42.132,139.500 48.958 L 139.500 55.167 141.167 55.167 L 142.833 55.167 142.833 48.392 C 142.833 40.800,142.733 39.810,141.758 37.750 C 141.286 36.754,139.891 35.000,139.571 35.000 C 139.515 35.000,139.285 34.855,139.060 34.678 C 136.303 32.509,130.671 33.056,127.958 35.756 L 127.000 36.710 127.000 31.438 L 127.000 26.167 125.250 26.167 L 123.500 26.167 123.500 40.667 M360.565 27.822 C 357.183 28.770,354.833 31.701,354.833 34.972 C 354.833 35.106,355.311 35.167,356.379 35.167 L 357.924 35.167 358.147 34.208 C 359.343 29.061,367.066 28.775,368.565 33.823 C 369.861 38.189,367.291 40.921,361.667 41.156 L 359.417 41.250 359.417 44.250 L 359.417 47.250 360.859 47.298 L 362.301 47.346 362.410 45.715 C 362.470 44.817,362.534 43.971,362.553 43.833 C 362.579 43.642,362.939 43.557,364.081 43.470 C 369.261 43.075,372.000 40.328,372.000 35.528 C 372.000 29.796,366.571 26.137,360.565 27.822 M184.333 31.000 L 184.333 33.667 183.000 33.667 L 181.667 33.667 181.667 35.083 L 181.667 36.500 182.989 36.500 L 184.312 36.500 184.371 43.875 C 184.422 50.306,184.465 51.342,184.711 51.968 C 185.650 54.365,186.937 55.046,190.708 55.138 L 193.333 55.202 193.333 53.767 L 193.333 52.333 191.456 52.333 C 187.720 52.333,187.766 52.438,187.698 43.845 C 187.631 35.520,187.246 36.500,190.587 36.500 L 193.333 36.500 193.333 35.083 L 193.333 33.667 190.601 33.667 C 187.361 33.667,187.667 33.972,187.667 30.736 L 187.667 28.333 186.000 28.333 L 184.333 28.333 184.333 31.000 M217.333 30.993 L 217.333 33.653 215.958 33.702 L 214.583 33.750 214.583 35.083 L 214.583 36.417 215.917 36.500 L 217.250 36.583 217.334 44.167 L 217.418 51.750 217.883 52.581 C 219.030 54.628,219.974 55.048,223.625 55.136 L 226.333 55.201 226.333 53.767 L 226.333 52.333 224.495 52.333 C 222.376 52.333,221.741 52.139,221.150 51.311 L 220.750 50.750 220.750 43.667 L 220.750 36.583 223.542 36.538 L 226.333 36.492 226.333 35.079 L 226.333 33.667 223.500 33.667 L 220.667 33.667 220.667 31.000 L 220.667 28.333 219.000 28.333 L 217.333 28.333 217.333 30.993 M338.833 30.993 L 338.833 33.653 337.458 33.702 L 336.083 33.750 336.083 35.083 L 336.083 36.417 337.417 36.500 L 338.750 36.583 338.836 44.083 C 338.932 52.484,338.925 52.436,340.220 53.731 C 341.307 54.818,342.086 55.040,345.125 55.127 L 347.833 55.206 347.833 53.770 L 347.833 52.333 345.958 52.333 C 342.119 52.333,342.149 52.406,342.207 43.419 L 342.250 36.583 345.042 36.538 L 347.833 36.492 347.833 35.079 L 347.833 33.667 345.000 33.667 L 342.167 33.667 342.167 31.000 L 342.167 28.333 340.500 28.333 L 338.833 28.333 338.833 30.993 M31.343 33.545 C 33.335 35.475,37.635 39.528,38.471 40.265 C 39.141 40.856,39.445 40.457,35.500 44.171 C 33.896 45.681,31.909 47.571,31.084 48.372 L 29.583 49.826 31.648 49.830 L 33.713 49.833 34.481 49.135 C 35.641 48.082,40.219 43.766,41.829 42.208 L 43.250 40.833 41.913 39.542 C 41.178 38.831,39.378 37.126,37.913 35.752 C 36.448 34.378,34.914 32.934,34.503 32.544 L 33.756 31.833 31.670 31.837 L 29.583 31.840 31.343 33.545 M160.083 33.488 C 153.404 34.336,149.599 42.193,152.436 49.283 C 155.111 55.969,163.535 57.725,168.542 52.639 L 169.833 51.327 169.833 53.247 L 169.833 55.167 171.585 55.167 L 173.336 55.167 173.293 44.458 L 173.250 33.750 171.583 33.750 L 169.917 33.750 169.833 35.631 L 169.750 37.512 168.845 36.483 C 166.750 34.101,163.637 33.037,160.083 33.488 M243.083 33.438 C 236.411 34.087,232.142 40.800,233.971 47.765 C 235.604 53.986,242.179 57.148,248.583 54.794 C 250.256 54.179,253.163 51.792,253.675 50.612 C 253.762 50.413,253.904 50.137,253.992 50.000 C 257.079 45.150,254.625 36.684,249.500 34.504 C 249.271 34.406,248.933 34.258,248.750 34.174 C 247.591 33.642,244.763 33.275,243.083 33.438 M286.333 33.500 C 282.816 33.940,280.017 35.901,278.598 38.917 C 278.425 39.283,278.223 39.709,278.149 39.862 C 277.191 41.834,277.251 46.916,278.259 49.109 C 278.391 49.397,278.500 49.673,278.500 49.722 C 278.500 50.484,281.282 53.577,282.523 54.196 C 288.193 57.022,294.735 55.309,297.227 50.347 C 298.060 48.690,298.042 48.666,295.964 48.669 L 294.250 48.670 293.921 49.356 C 291.725 53.938,284.190 53.808,281.771 49.147 C 281.293 48.225,280.801 46.277,280.950 45.891 C 281.020 45.707,282.587 45.667,289.684 45.667 L 298.333 45.667 298.333 43.919 C 298.333 36.990,293.309 32.627,286.333 33.500 M314.583 33.498 C 303.727 34.940,302.836 52.005,313.448 55.237 C 315.502 55.862,318.706 55.512,320.744 54.440 C 321.713 53.930,323.833 52.056,323.833 51.709 C 323.833 51.614,323.946 51.492,324.083 51.440 C 324.297 51.358,324.333 51.625,324.333 53.255 L 324.333 55.167 326.085 55.167 L 327.836 55.167 327.793 44.458 L 327.750 33.750 326.083 33.750 L 324.417 33.750 324.333 35.667 L 324.250 37.583 323.833 37.083 C 321.421 34.189,318.349 32.998,314.583 33.498 M84.732 34.341 C 84.791 34.711,84.908 35.143,84.991 35.299 C 85.075 35.455,85.311 36.146,85.517 36.833 C 85.722 37.521,86.167 38.946,86.506 40.000 C 86.844 41.054,87.292 42.479,87.501 43.167 C 87.709 43.854,87.978 44.717,88.096 45.083 C 88.334 45.815,89.593 49.837,90.366 52.333 C 90.636 53.204,90.948 54.179,91.060 54.500 L 91.264 55.083 93.077 55.083 L 94.891 55.083 95.288 53.750 C 95.507 53.017,95.859 51.854,96.070 51.167 C 96.282 50.479,96.621 49.354,96.825 48.667 C 97.028 47.979,97.294 47.117,97.415 46.750 C 97.536 46.383,97.764 45.633,97.920 45.083 C 98.077 44.533,98.305 43.783,98.426 43.417 C 98.547 43.050,98.809 42.188,99.009 41.500 C 99.885 38.481,100.020 38.142,100.267 38.347 C 100.395 38.454,100.500 38.623,100.500 38.724 C 100.500 38.825,100.721 39.622,100.991 40.495 C 101.563 42.343,102.622 45.822,102.871 46.667 C 102.965 46.987,103.139 47.550,103.256 47.917 C 103.374 48.283,103.633 49.146,103.831 49.833 C 104.029 50.521,104.254 51.271,104.331 51.500 C 104.407 51.729,104.636 52.479,104.839 53.167 C 105.473 55.311,105.297 55.167,107.282 55.167 C 109.278 55.167,108.994 55.445,109.833 52.667 C 110.124 51.704,110.460 50.617,110.580 50.250 C 110.700 49.883,110.966 49.021,111.170 48.333 C 111.375 47.646,111.601 46.933,111.672 46.750 C 111.744 46.567,112.078 45.517,112.415 44.417 C 112.752 43.317,113.090 42.229,113.165 42.000 C 113.241 41.771,113.469 41.021,113.672 40.333 C 113.876 39.646,114.102 38.933,114.175 38.750 C 114.348 38.318,115.451 34.722,115.593 34.125 L 115.703 33.667 114.098 33.667 C 112.588 33.667,112.484 33.689,112.347 34.042 C 112.178 34.473,112.051 34.943,109.897 43.083 C 109.752 43.633,109.539 44.421,109.425 44.833 C 109.223 45.559,108.896 46.761,108.383 48.667 C 108.247 49.171,108.031 49.935,107.901 50.365 C 107.772 50.794,107.667 51.263,107.667 51.406 C 107.667 51.999,107.198 51.621,107.008 50.875 C 106.897 50.440,106.709 49.783,106.590 49.417 C 106.398 48.819,105.971 47.329,104.969 43.750 C 104.789 43.108,104.578 42.396,104.501 42.167 C 104.423 41.938,104.242 41.337,104.098 40.833 C 103.703 39.457,102.999 37.024,102.722 36.083 C 102.587 35.625,102.383 34.912,102.269 34.500 L 102.062 33.750 100.281 33.703 C 99.301 33.677,98.500 33.694,98.500 33.742 C 98.500 33.789,98.305 34.486,98.067 35.289 C 97.829 36.093,97.529 37.106,97.400 37.542 C 97.272 37.977,97.054 38.708,96.917 39.167 C 96.779 39.625,96.549 40.394,96.405 40.875 C 96.261 41.356,96.072 42.050,95.985 42.417 C 95.898 42.783,95.760 43.233,95.678 43.417 C 95.596 43.600,95.328 44.462,95.082 45.333 C 94.628 46.945,94.374 47.814,93.902 49.375 C 93.757 49.856,93.557 50.569,93.457 50.958 C 93.184 52.034,92.842 51.834,92.534 50.417 C 92.435 49.958,92.240 49.171,92.102 48.667 C 91.259 45.601,90.872 44.220,90.794 44.000 C 90.745 43.862,90.582 43.262,90.431 42.667 C 90.280 42.071,90.050 41.208,89.920 40.750 C 89.443 39.069,88.977 37.396,88.760 36.583 C 88.637 36.125,88.404 35.281,88.242 34.708 L 87.947 33.667 86.286 33.667 L 84.624 33.667 84.732 34.341 M290.312 36.592 C 293.025 37.536,294.609 39.483,294.712 42.000 L 294.750 42.917 287.852 42.960 L 280.954 43.004 281.060 42.044 C 281.335 39.576,282.889 37.713,285.667 36.524 C 286.618 36.116,289.047 36.152,290.312 36.592 M164.500 36.591 C 171.954 39.100,171.631 50.660,164.058 52.417 C 159.051 53.578,155.095 50.051,155.087 44.417 C 155.078 38.719,159.616 34.946,164.500 36.591 M246.915 36.731 C 250.089 37.884,251.833 40.618,251.833 44.441 C 251.833 53.951,239.183 55.857,237.244 46.639 C 235.827 39.904,241.014 34.590,246.915 36.731 M319.050 36.615 C 325.961 38.876,326.171 49.863,319.347 52.162 C 313.987 53.968,309.583 50.475,309.583 44.417 C 309.583 38.606,314.002 34.964,319.050 36.615 M359.365 51.303 C 358.117 52.470,358.364 54.417,359.857 55.179 C 362.217 56.383,364.290 53.269,362.370 51.404 C 361.558 50.615,360.153 50.568,359.365 51.303 M55.167 58.417 L 55.167 60.000 65.583 60.000 L 76.000 60.000 76.000 58.417 L 76.000 56.833 65.583 56.833 L 55.167 56.833 55.167 58.417 " stroke="none" fill="#eac5be" fill-rule="evenodd"></path><path id="path1" d="M187.901 30.917 C 187.901 32.383,187.927 32.961,187.957 32.200 C 187.988 31.440,187.988 30.240,187.957 29.534 C 187.926 28.828,187.901 29.450,187.901 30.917 M161.375 33.286 C 161.627 33.324,162.040 33.324,162.292 33.286 C 162.544 33.248,162.337 33.217,161.833 33.217 C 161.329 33.217,161.123 33.248,161.375 33.286 M244.042 33.286 C 244.294 33.324,244.706 33.324,244.958 33.286 C 245.210 33.248,245.004 33.217,244.500 33.217 C 243.996 33.217,243.790 33.248,244.042 33.286 M287.628 33.287 C 287.928 33.325,288.378 33.324,288.628 33.286 C 288.878 33.248,288.633 33.217,288.083 33.218 C 287.533 33.219,287.328 33.250,287.628 33.287 M315.877 33.286 C 316.131 33.325,316.506 33.324,316.711 33.284 C 316.916 33.244,316.708 33.213,316.250 33.214 C 315.792 33.216,315.624 33.248,315.877 33.286 M193.557 35.083 C 193.558 35.817,193.587 36.096,193.622 35.704 C 193.657 35.312,193.657 34.712,193.621 34.371 C 193.585 34.029,193.557 34.350,193.557 35.083 M162.127 36.451 C 162.334 36.491,162.634 36.490,162.794 36.448 C 162.953 36.406,162.783 36.374,162.417 36.375 C 162.050 36.377,161.920 36.411,162.127 36.451 M244.127 36.451 C 244.334 36.491,244.634 36.490,244.794 36.448 C 244.953 36.406,244.783 36.374,244.417 36.375 C 244.050 36.377,243.920 36.411,244.127 36.451 M316.458 36.451 C 316.665 36.491,317.002 36.491,317.208 36.451 C 317.415 36.411,317.246 36.379,316.833 36.379 C 316.421 36.379,316.252 36.411,316.458 36.451 M187.909 43.417 C 187.909 47.083,187.931 48.560,187.958 46.697 C 187.985 44.835,187.985 41.835,187.958 40.031 C 187.931 38.226,187.909 39.750,187.909 43.417 M255.383 44.333 C 255.383 44.837,255.415 45.044,255.453 44.792 C 255.491 44.540,255.491 44.127,255.453 43.875 C 255.415 43.623,255.383 43.829,255.383 44.333 M155.048 44.417 C 155.049 44.875,155.081 45.043,155.120 44.789 C 155.158 44.536,155.157 44.161,155.117 43.956 C 155.078 43.751,155.046 43.958,155.048 44.417 M233.372 44.500 C 233.372 44.821,233.406 44.952,233.448 44.792 C 233.490 44.631,233.490 44.369,233.448 44.208 C 233.406 44.048,233.372 44.179,233.372 44.500 M193.499 53.784 C 193.454 54.628,193.476 55.258,193.549 55.185 C 193.622 55.112,193.658 54.422,193.631 53.651 L 193.581 52.250 193.499 53.784 " stroke="none" fill="#8c7c74" fill-rule="evenodd"></path><path id="path2" d="M2.041 41.542 L 2.083 80.917 200.000 80.917 L 397.917 80.917 397.959 41.542 L 398.001 2.167 200.000 2.167 L 1.999 2.167 2.041 41.542 M390.125 9.638 C 390.292 9.743,390.326 16.228,390.292 41.510 L 390.250 73.250 199.917 73.250 L 9.583 73.250 9.541 41.583 C 9.501 11.959,9.516 9.903,9.781 9.708 C 10.107 9.468,389.747 9.398,390.125 9.638 M11.500 41.417 L 11.500 71.333 199.917 71.333 L 388.333 71.333 388.333 41.417 L 388.333 11.500 199.917 11.500 L 11.500 11.500 11.500 41.417 M126.958 25.938 L 127.333 26.039 127.333 30.955 L 127.333 35.872 127.994 35.275 C 128.844 34.507,129.846 33.877,130.444 33.734 C 130.704 33.672,131.022 33.537,131.150 33.435 C 131.464 33.187,136.639 33.185,137.183 33.433 C 139.947 34.693,141.104 35.702,142.059 37.688 C 142.393 38.383,142.667 39.135,142.667 39.359 C 142.667 39.583,142.760 39.860,142.875 39.975 C 143.174 40.274,143.288 54.902,142.994 55.257 C 142.722 55.585,139.464 55.608,139.195 55.284 C 139.075 55.140,139.000 52.607,138.966 47.612 C 138.931 42.358,138.862 40.119,138.731 40.035 C 138.629 39.970,138.488 39.735,138.419 39.513 C 138.288 39.095,138.247 39.034,137.622 38.331 C 135.015 35.396,129.730 36.122,127.898 39.667 L 127.424 40.583 127.337 48.000 L 127.250 55.417 125.250 55.417 L 123.250 55.417 123.207 40.721 C 123.167 26.827,123.181 26.021,123.457 25.948 C 123.903 25.832,126.533 25.824,126.958 25.938 M366.333 27.506 C 370.200 28.853,372.085 31.253,372.286 35.084 C 372.492 39.016,370.368 42.431,367.308 43.086 C 367.001 43.151,366.667 43.271,366.566 43.353 C 366.465 43.434,365.903 43.542,365.316 43.594 C 364.730 43.646,363.896 43.766,363.464 43.860 L 362.678 44.031 362.630 45.807 L 362.583 47.583 360.968 47.631 L 359.352 47.679 359.177 47.048 C 359.081 46.701,359.001 45.198,359.001 43.708 L 359.000 41.000 360.375 40.991 C 366.556 40.953,369.143 38.798,368.348 34.349 C 368.032 32.584,366.423 30.833,365.117 30.833 C 364.972 30.833,364.807 30.758,364.750 30.667 C 364.624 30.463,362.222 30.443,362.097 30.645 C 362.048 30.724,361.698 30.839,361.319 30.900 C 360.086 31.097,358.785 32.596,358.483 34.167 L 358.243 35.417 356.413 35.417 L 354.583 35.417 354.530 34.770 C 354.501 34.414,354.557 34.043,354.655 33.945 C 354.753 33.847,354.833 33.540,354.833 33.263 C 354.833 31.258,357.652 28.281,360.167 27.630 C 360.488 27.546,360.975 27.411,361.250 27.329 C 361.929 27.126,365.610 27.254,366.333 27.506 M188.000 30.667 L 188.000 33.333 190.717 33.333 C 193.963 33.333,193.833 33.256,193.833 35.182 C 193.833 36.951,194.059 36.833,190.653 36.833 L 188.000 36.833 188.000 43.667 C 188.000 47.460,188.065 50.500,188.146 50.500 C 188.226 50.500,188.335 50.706,188.387 50.958 C 188.555 51.765,189.254 52.000,191.493 52.000 C 193.901 52.000,193.863 51.968,193.798 53.942 L 193.750 55.417 190.917 55.399 C 187.010 55.374,185.763 54.828,184.707 52.681 L 184.250 51.750 184.202 44.292 L 184.154 36.833 182.860 36.833 C 181.227 36.833,181.167 36.771,181.167 35.083 C 181.167 33.395,181.226 33.333,182.867 33.333 L 184.167 33.333 184.167 30.667 L 184.167 28.000 186.083 28.000 L 188.000 28.000 188.000 30.667 M221.000 30.667 L 221.000 33.333 223.747 33.333 C 226.944 33.333,226.716 33.168,226.633 35.417 L 226.583 36.750 223.792 36.796 L 221.000 36.841 221.000 43.677 C 221.000 52.333,220.864 51.983,224.250 51.997 C 226.795 52.007,226.691 51.926,226.632 53.847 L 226.583 55.417 224.750 55.467 C 217.624 55.661,217.014 54.703,217.005 43.298 L 217.000 36.847 215.625 36.798 L 214.250 36.750 214.250 35.083 L 214.250 33.417 215.625 33.368 L 217.000 33.320 217.000 30.771 C 217.000 27.732,216.796 28.000,219.111 28.000 L 221.000 28.000 221.000 30.667 M342.500 30.667 L 342.500 33.333 345.247 33.333 C 348.444 33.333,348.216 33.168,348.133 35.417 L 348.083 36.750 345.292 36.796 L 342.500 36.841 342.500 43.596 C 342.500 52.301,342.377 51.983,345.750 51.997 C 348.295 52.007,348.191 51.926,348.132 53.847 L 348.083 55.417 346.250 55.467 C 342.784 55.561,341.398 55.209,340.030 53.885 C 338.615 52.514,338.604 52.441,338.534 44.125 L 338.473 36.833 337.333 36.833 C 335.624 36.833,335.667 36.878,335.667 35.083 C 335.667 33.287,335.622 33.333,337.347 33.333 L 338.500 33.333 338.500 30.778 C 338.500 27.731,338.296 28.000,340.611 28.000 L 342.500 28.000 342.500 30.667 M36.198 33.712 C 38.102 35.547,41.133 38.418,42.854 40.016 C 43.672 40.775,43.664 40.990,42.792 41.716 C 42.402 42.041,41.161 43.208,40.033 44.311 C 38.905 45.413,37.150 47.088,36.134 48.033 C 35.117 48.977,34.189 49.844,34.071 49.958 C 33.804 50.219,29.408 50.255,29.249 49.998 C 29.157 49.850,31.068 47.925,34.250 44.958 C 34.800 44.445,36.000 43.303,36.917 42.421 L 38.583 40.818 37.417 39.726 C 36.280 38.662,31.824 34.434,30.051 32.737 C 28.883 31.619,28.814 31.666,31.625 31.670 L 34.083 31.673 36.198 33.712 M164.917 33.493 C 166.566 34.207,167.000 34.425,167.000 34.539 C 167.000 34.609,167.111 34.667,167.246 34.667 C 167.381 34.667,167.943 35.109,168.496 35.649 L 169.500 36.632 169.500 35.183 C 169.500 34.278,169.575 33.658,169.700 33.533 C 169.995 33.238,173.232 33.261,173.481 33.560 C 173.617 33.725,173.657 36.752,173.626 44.602 L 173.583 55.417 171.583 55.417 L 169.583 55.417 169.536 53.802 L 169.488 52.188 168.433 53.228 C 165.621 55.999,160.372 56.686,156.951 54.730 C 156.565 54.510,156.132 54.288,155.987 54.236 C 155.491 54.060,153.361 51.710,152.807 50.730 C 150.712 47.017,150.699 41.729,152.777 38.151 C 154.010 36.029,156.868 33.693,158.258 33.672 C 158.446 33.669,158.671 33.597,158.758 33.513 C 159.154 33.128,164.038 33.112,164.917 33.493 M248.368 33.708 C 251.509 34.859,255.000 38.456,255.000 40.541 C 255.000 40.665,255.094 40.860,255.208 40.975 C 255.863 41.629,255.385 47.906,254.560 49.486 C 254.437 49.723,254.335 50.010,254.334 50.125 C 254.334 50.240,254.275 50.333,254.205 50.333 C 254.134 50.333,253.927 50.615,253.746 50.958 C 253.074 52.234,249.981 54.833,249.137 54.833 C 249.006 54.833,248.829 54.897,248.742 54.976 C 248.026 55.620,243.617 56.084,242.042 55.681 C 241.652 55.582,241.035 55.425,240.670 55.333 C 238.687 54.835,236.297 53.011,235.101 51.083 C 231.175 44.759,234.186 35.105,240.507 33.752 C 240.824 33.684,241.158 33.568,241.250 33.496 C 241.870 33.002,246.846 33.151,248.368 33.708 M291.191 33.450 C 291.315 33.553,291.698 33.689,292.042 33.754 C 292.385 33.818,292.667 33.929,292.667 34.000 C 292.667 34.072,292.872 34.182,293.123 34.245 C 293.374 34.308,293.618 34.411,293.665 34.473 C 293.712 34.535,294.087 34.805,294.500 35.073 C 295.738 35.876,297.667 38.248,297.667 38.967 C 297.667 39.062,297.771 39.352,297.898 39.611 C 298.391 40.617,298.527 41.324,298.619 43.371 C 298.751 46.319,299.830 46.000,289.726 46.000 L 281.160 46.000 281.237 46.375 C 281.280 46.581,281.361 47.038,281.418 47.391 C 281.651 48.838,283.545 51.338,284.611 51.605 C 284.825 51.659,285.000 51.767,285.000 51.846 C 285.000 51.924,285.375 52.038,285.833 52.099 C 286.292 52.160,286.667 52.280,286.667 52.367 C 286.667 52.573,289.196 52.443,290.132 52.189 C 291.556 51.803,292.961 50.627,293.652 49.243 L 294.023 48.500 296.095 48.500 C 298.510 48.500,298.461 48.448,297.636 50.153 C 296.705 52.078,294.680 54.333,293.883 54.333 C 293.764 54.333,293.667 54.408,293.667 54.500 C 293.667 54.592,293.581 54.667,293.477 54.667 C 293.372 54.667,292.978 54.809,292.602 54.983 C 289.567 56.383,283.310 55.826,281.667 54.009 C 281.621 53.958,281.234 53.636,280.807 53.293 C 276.079 49.495,275.883 39.964,280.449 35.826 C 281.500 34.872,283.619 33.673,284.258 33.669 C 284.446 33.668,284.671 33.597,284.758 33.513 C 285.136 33.146,290.757 33.091,291.191 33.450 M319.129 33.469 C 319.165 33.578,319.357 33.669,319.556 33.672 C 320.500 33.687,323.667 35.896,323.667 36.540 C 323.667 36.610,323.739 36.667,323.827 36.667 C 323.916 36.667,324.009 35.940,324.036 35.042 L 324.083 33.417 325.914 33.369 C 328.423 33.304,328.167 32.036,328.167 44.511 C 328.167 56.839,328.438 55.531,325.893 55.464 L 324.083 55.417 324.035 53.780 L 323.988 52.143 323.082 53.063 C 322.151 54.009,320.016 55.327,319.408 55.331 C 319.220 55.332,318.973 55.427,318.858 55.542 C 318.461 55.939,314.112 55.818,312.849 55.375 C 308.272 53.770,305.667 49.666,305.667 44.060 C 305.667 43.029,305.733 42.145,305.814 42.095 C 305.895 42.045,306.011 41.605,306.072 41.116 C 306.133 40.627,306.292 40.018,306.425 39.761 C 306.558 39.505,306.667 39.223,306.667 39.135 C 306.667 37.738,311.164 33.667,312.708 33.667 C 312.832 33.667,313.005 33.597,313.092 33.513 C 313.481 33.134,319.004 33.094,319.129 33.469 M88.133 33.533 C 88.243 33.643,88.333 33.901,88.333 34.107 C 88.333 34.312,88.406 34.525,88.495 34.580 C 88.584 34.635,88.706 35.052,88.767 35.507 C 88.827 35.961,88.935 36.333,89.006 36.333 C 89.077 36.333,89.187 36.708,89.250 37.166 C 89.313 37.625,89.426 38.037,89.500 38.083 C 89.574 38.129,89.687 38.542,89.750 39.000 C 89.813 39.458,89.927 39.872,90.004 39.919 C 90.081 39.966,90.195 40.417,90.258 40.919 C 90.320 41.422,90.431 41.833,90.504 41.833 C 90.576 41.833,90.687 42.208,90.750 42.666 C 90.813 43.125,90.926 43.537,91.000 43.583 C 91.074 43.629,91.187 44.042,91.250 44.500 C 91.313 44.958,91.426 45.371,91.500 45.417 C 91.574 45.463,91.687 45.875,91.750 46.333 C 91.813 46.791,91.930 47.207,92.011 47.257 C 92.091 47.306,92.207 47.721,92.267 48.177 C 92.328 48.634,92.442 49.048,92.522 49.097 C 92.602 49.146,92.667 49.313,92.668 49.468 C 92.668 49.623,92.753 50.050,92.856 50.417 L 93.044 51.083 93.354 50.083 C 93.524 49.533,93.784 48.671,93.932 48.167 C 94.081 47.663,94.301 46.950,94.422 46.583 C 94.542 46.217,94.693 45.654,94.757 45.333 C 94.820 45.012,94.930 44.675,95.000 44.583 C 95.071 44.492,95.181 44.098,95.246 43.709 C 95.310 43.320,95.422 42.965,95.495 42.920 C 95.568 42.874,95.679 42.501,95.740 42.089 C 95.802 41.678,95.923 41.297,96.010 41.244 C 96.096 41.191,96.167 41.014,96.167 40.852 C 96.167 40.546,96.748 38.505,97.003 37.917 C 97.082 37.733,97.198 37.321,97.260 37.000 C 97.321 36.679,97.430 36.342,97.500 36.250 C 97.571 36.158,97.684 35.749,97.752 35.340 C 97.819 34.931,97.952 34.443,98.047 34.256 C 98.141 34.070,98.271 33.804,98.335 33.667 C 98.426 33.472,98.848 33.406,100.245 33.369 C 102.173 33.318,102.482 33.441,102.495 34.264 C 102.498 34.455,102.556 34.667,102.625 34.736 C 102.694 34.805,102.837 35.211,102.943 35.639 C 103.050 36.067,103.263 36.829,103.416 37.333 C 103.569 37.837,103.793 38.625,103.914 39.083 C 104.035 39.542,104.413 40.854,104.754 42.000 C 105.541 44.640,105.601 44.856,105.928 46.167 C 106.076 46.762,106.261 47.400,106.339 47.583 C 106.417 47.767,106.532 48.177,106.595 48.495 C 106.658 48.812,106.767 49.187,106.839 49.328 C 106.910 49.468,107.060 49.921,107.172 50.333 L 107.376 51.083 107.677 50.167 C 107.842 49.663,107.983 49.086,107.989 48.885 C 107.995 48.684,108.065 48.479,108.145 48.430 C 108.224 48.381,108.339 47.967,108.400 47.511 C 108.460 47.054,108.574 46.641,108.652 46.592 C 108.730 46.544,108.846 46.092,108.909 45.588 C 108.972 45.084,109.086 44.633,109.163 44.586 C 109.239 44.538,109.354 44.125,109.417 43.667 C 109.480 43.209,109.592 42.796,109.667 42.750 C 109.741 42.704,109.854 42.291,109.917 41.833 C 109.980 41.375,110.091 40.964,110.163 40.919 C 110.236 40.874,110.347 40.488,110.411 40.061 C 110.475 39.634,110.593 39.164,110.674 39.017 C 110.754 38.870,110.894 38.412,110.984 38.000 C 111.075 37.587,111.307 36.650,111.501 35.917 C 111.695 35.183,111.896 34.396,111.949 34.167 C 112.127 33.390,112.275 33.333,114.109 33.333 C 116.233 33.333,116.200 33.282,115.497 35.536 C 115.202 36.479,114.778 37.850,114.554 38.583 C 114.330 39.317,114.047 40.217,113.925 40.583 C 113.803 40.950,113.426 42.150,113.088 43.250 C 112.750 44.350,112.409 45.400,112.330 45.583 C 112.251 45.767,112.136 46.179,112.074 46.500 C 112.012 46.821,111.904 47.158,111.833 47.250 C 111.763 47.342,111.650 47.679,111.583 48.000 C 111.516 48.321,111.405 48.658,111.336 48.750 C 111.267 48.842,111.156 49.217,111.090 49.583 C 111.024 49.950,110.912 50.325,110.840 50.417 C 110.769 50.508,110.658 50.874,110.594 51.229 C 110.530 51.584,110.411 51.996,110.331 52.146 C 110.250 52.295,110.026 52.979,109.833 53.667 C 109.307 55.545,109.497 55.417,107.232 55.417 L 105.250 55.417 105.017 54.667 C 104.889 54.254,104.726 53.767,104.654 53.583 C 104.582 53.400,104.363 52.688,104.166 52.000 C 103.969 51.313,103.745 50.563,103.667 50.333 C 103.589 50.104,103.363 49.354,103.164 48.667 C 102.966 47.979,102.707 47.117,102.589 46.750 C 102.336 45.964,101.985 44.803,101.582 43.417 C 101.422 42.867,101.194 42.117,101.077 41.750 C 100.959 41.383,100.691 40.521,100.482 39.833 L 100.102 38.583 99.926 39.417 C 99.829 39.875,99.701 40.326,99.640 40.418 C 99.580 40.510,99.476 40.885,99.410 41.251 C 99.344 41.617,99.233 41.992,99.164 42.083 C 99.095 42.175,98.984 42.512,98.917 42.833 C 98.850 43.154,98.737 43.492,98.666 43.583 C 98.596 43.675,98.485 44.068,98.421 44.457 C 98.357 44.847,98.245 45.202,98.171 45.247 C 98.098 45.292,97.988 45.668,97.926 46.081 C 97.864 46.495,97.752 46.833,97.678 46.833 C 97.604 46.833,97.494 47.205,97.433 47.660 C 97.373 48.114,97.255 48.529,97.171 48.580 C 97.088 48.632,96.969 49.011,96.907 49.423 C 96.845 49.834,96.733 50.209,96.657 50.256 C 96.581 50.303,96.469 50.677,96.407 51.087 C 96.346 51.498,96.229 51.833,96.148 51.833 C 96.066 51.833,96.000 51.971,96.000 52.139 C 96.000 52.445,95.443 54.424,95.159 55.125 C 94.963 55.608,91.000 55.725,91.000 55.248 C 91.000 55.109,90.933 54.865,90.852 54.706 C 90.770 54.547,90.538 53.854,90.337 53.167 C 90.135 52.479,89.912 51.767,89.840 51.583 C 89.768 51.400,89.544 50.688,89.342 50.000 C 89.141 49.313,88.908 48.622,88.825 48.466 C 88.741 48.309,88.624 47.876,88.565 47.504 C 88.505 47.131,88.395 46.788,88.321 46.742 C 88.247 46.696,88.136 46.323,88.074 45.913 C 88.013 45.502,87.902 45.167,87.829 45.167 C 87.756 45.167,87.643 44.848,87.579 44.458 C 87.515 44.069,87.404 43.675,87.334 43.583 C 87.263 43.492,87.150 43.154,87.083 42.833 C 87.016 42.512,86.904 42.175,86.833 42.083 C 86.762 41.992,86.652 41.598,86.588 41.209 C 86.524 40.820,86.411 40.465,86.338 40.419 C 86.264 40.374,86.152 40.055,86.087 39.710 C 86.023 39.365,85.912 39.008,85.840 38.917 C 85.769 38.825,85.658 38.460,85.594 38.104 C 85.530 37.749,85.413 37.337,85.334 37.188 C 85.255 37.039,85.027 36.354,84.827 35.667 C 84.627 34.979,84.398 34.288,84.318 34.132 C 83.975 33.462,84.270 33.333,86.151 33.333 C 87.315 33.333,88.003 33.403,88.133 33.533 M160.583 36.799 C 160.033 36.938,159.546 37.096,159.500 37.151 C 159.454 37.205,159.129 37.397,158.777 37.576 C 154.792 39.605,154.068 46.777,157.492 50.305 C 160.095 52.988,164.838 52.925,167.462 50.174 C 168.226 49.372,168.475 48.983,169.113 47.583 C 169.476 46.787,169.573 41.753,169.229 41.536 C 169.126 41.470,168.990 41.178,168.927 40.887 C 168.864 40.595,168.704 40.267,168.573 40.158 C 168.441 40.049,168.333 39.874,168.333 39.770 C 168.333 39.443,166.368 37.684,165.626 37.348 C 163.753 36.499,162.363 36.348,160.583 36.799 M242.583 36.815 C 235.199 38.970,235.617 51.220,243.107 52.170 C 244.356 52.328,246.818 52.120,246.999 51.841 C 247.045 51.770,247.265 51.655,247.487 51.585 C 248.320 51.325,249.991 49.677,250.634 48.483 C 251.696 46.507,251.842 42.667,250.922 40.903 C 250.783 40.636,250.668 40.323,250.668 40.208 C 250.667 40.094,250.597 40.000,250.511 40.000 C 250.426 40.000,250.312 39.861,250.258 39.690 C 249.617 37.673,245.251 36.037,242.583 36.815 M286.250 36.667 C 286.193 36.758,286.028 36.833,285.883 36.833 C 284.949 36.833,282.581 38.689,282.086 39.810 C 281.938 40.144,281.739 40.557,281.644 40.729 C 281.549 40.900,281.430 41.444,281.379 41.937 L 281.287 42.833 287.916 42.833 L 294.546 42.833 294.456 41.875 C 294.406 41.348,294.246 40.692,294.100 40.417 C 293.955 40.142,293.835 39.825,293.834 39.713 C 293.833 39.394,291.983 37.614,291.333 37.308 C 289.798 36.582,286.555 36.173,286.250 36.667 M315.083 36.814 C 307.585 38.929,308.003 51.080,315.612 52.159 C 320.592 52.865,323.917 49.765,323.917 44.417 C 323.917 39.006,319.818 35.478,315.083 36.814 M362.633 51.222 C 363.949 52.538,363.301 55.171,361.542 55.657 C 359.635 56.183,357.774 54.266,358.344 52.363 C 358.905 50.491,361.272 49.861,362.633 51.222 M76.228 57.042 C 76.358 57.527,76.358 59.474,76.228 59.960 L 76.127 60.336 65.522 60.293 L 54.917 60.250 54.868 58.679 C 54.842 57.815,54.858 57.009,54.905 56.888 C 54.974 56.707,56.938 56.667,65.559 56.667 L 76.128 56.667 76.228 57.042 " stroke="none" fill="#343434" fill-rule="evenodd"></path></g></svg>