<svg width="202" height="42" viewBox="0 0 202 42" fill="none" xmlns="http://www.w3.org/2000/svg">
<rect x="0.6" y="0.6" width="200.8" height="40.8" stroke="#E8C4B8" stroke-width="0.8"/>
<rect x="5.4" y="5.4" width="191.2" height="31.2" stroke="#E8C4B8" stroke-width="0.8"/>
<path d="M14.88 16.1H17.18L22.02 20.68L17.18 25.28H14.88L19.72 20.68L14.88 16.1ZM38.5213 28.76V30.44H27.8813V28.76H38.5213ZM58.5892 17.04L55.1692 28H53.2892L50.6492 19.3L48.0092 28H46.1292L42.6892 17.04H44.5492L47.0692 26.24L49.7892 17.04H51.6492L54.3092 26.26L56.7892 17.04H58.5892ZM67.8355 16.84C68.6621 16.84 69.4088 17.02 70.0755 17.38C70.7421 17.7267 71.2621 18.2533 71.6355 18.96C72.0221 19.6667 72.2155 20.5267 72.2155 21.54V28H70.4155V21.8C70.4155 20.7067 70.1421 19.8733 69.5955 19.3C69.0488 18.7133 68.3021 18.42 67.3555 18.42C66.3955 18.42 65.6288 18.72 65.0555 19.32C64.4955 19.92 64.2155 20.7933 64.2155 21.94V28H62.3955V13.2H64.2155V18.6C64.5755 18.04 65.0688 17.6067 65.6955 17.3C66.3355 16.9933 67.0488 16.84 67.8355 16.84ZM76.5084 22.48C76.5084 21.36 76.7351 20.38 77.1884 19.54C77.6418 18.6867 78.2618 18.0267 79.0484 17.56C79.8484 17.0933 80.7351 16.86 81.7084 16.86C82.6684 16.86 83.5018 17.0667 84.2084 17.48C84.9151 17.8933 85.4418 18.4133 85.7884 19.04V17.04H87.6284V28H85.7884V25.96C85.4284 26.6 84.8884 27.1333 84.1684 27.56C83.4618 27.9733 82.6351 28.18 81.6884 28.18C80.7151 28.18 79.8351 27.94 79.0484 27.46C78.2618 26.98 77.6418 26.3067 77.1884 25.44C76.7351 24.5733 76.5084 23.5867 76.5084 22.48ZM85.7884 22.5C85.7884 21.6733 85.6218 20.9533 85.2884 20.34C84.9551 19.7267 84.5018 19.26 83.9284 18.94C83.3684 18.6067 82.7484 18.44 82.0684 18.44C81.3884 18.44 80.7684 18.6 80.2084 18.92C79.6484 19.24 79.2018 19.7067 78.8684 20.32C78.5351 20.9333 78.3684 21.6533 78.3684 22.48C78.3684 23.32 78.5351 24.0533 78.8684 24.68C79.2018 25.2933 79.6484 25.7667 80.2084 26.1C80.7684 26.42 81.3884 26.58 82.0684 26.58C82.7484 26.58 83.3684 26.42 83.9284 26.1C84.5018 25.7667 84.9551 25.2933 85.2884 24.68C85.6218 24.0533 85.7884 23.3267 85.7884 22.5ZM94.9241 18.54V25C94.9241 25.5333 95.0374 25.9133 95.2641 26.14C95.4907 26.3533 95.8841 26.46 96.4441 26.46H97.7841V28H96.1441C95.1307 28 94.3707 27.7667 93.8641 27.3C93.3574 26.8333 93.1041 26.0667 93.1041 25V18.54H91.6841V17.04H93.1041V14.28H94.9241V17.04H97.7841V18.54H94.9241ZM111.541 18.54V25C111.541 25.5333 111.655 25.9133 111.881 26.14C112.108 26.3533 112.501 26.46 113.061 26.46H114.401V28H112.761C111.748 28 110.988 27.7667 110.481 27.3C109.975 26.8333 109.721 26.0667 109.721 25V18.54H108.301V17.04H109.721V14.28H111.541V17.04H114.401V18.54H111.541ZM123.386 28.18C122.36 28.18 121.426 27.9467 120.586 27.48C119.76 27.0133 119.106 26.3533 118.626 25.5C118.16 24.6333 117.926 23.6333 117.926 22.5C117.926 21.38 118.166 20.3933 118.646 19.54C119.14 18.6733 119.806 18.0133 120.646 17.56C121.486 17.0933 122.426 16.86 123.466 16.86C124.506 16.86 125.446 17.0933 126.286 17.56C127.126 18.0133 127.786 18.6667 128.266 19.52C128.76 20.3733 129.006 21.3667 129.006 22.5C129.006 23.6333 128.753 24.6333 128.246 25.5C127.753 26.3533 127.08 27.0133 126.226 27.48C125.373 27.9467 124.426 28.18 123.386 28.18ZM123.386 26.58C124.04 26.58 124.653 26.4267 125.226 26.12C125.8 25.8133 126.26 25.3533 126.606 24.74C126.966 24.1267 127.146 23.38 127.146 22.5C127.146 21.62 126.973 20.8733 126.626 20.26C126.28 19.6467 125.826 19.1933 125.266 18.9C124.706 18.5933 124.1 18.44 123.446 18.44C122.78 18.44 122.166 18.5933 121.606 18.9C121.06 19.1933 120.62 19.6467 120.286 20.26C119.953 20.8733 119.786 21.62 119.786 22.5C119.786 23.3933 119.946 24.1467 120.266 24.76C120.6 25.3733 121.04 25.8333 121.586 26.14C122.133 26.4333 122.733 26.58 123.386 26.58ZM150.731 22.1C150.731 22.4467 150.711 22.8133 150.671 23.2H141.911C141.978 24.28 142.345 25.1267 143.011 25.74C143.691 26.34 144.511 26.64 145.471 26.64C146.258 26.64 146.911 26.46 147.431 26.1C147.965 25.7267 148.338 25.2333 148.551 24.62H150.511C150.218 25.6733 149.631 26.5333 148.751 27.2C147.871 27.8533 146.778 28.18 145.471 28.18C144.431 28.18 143.498 27.9467 142.671 27.48C141.858 27.0133 141.218 26.3533 140.751 25.5C140.285 24.6333 140.051 23.6333 140.051 22.5C140.051 21.3667 140.278 20.3733 140.731 19.52C141.185 18.6667 141.818 18.0133 142.631 17.56C143.458 17.0933 144.405 16.86 145.471 16.86C146.511 16.86 147.431 17.0867 148.231 17.54C149.031 17.9933 149.645 18.62 150.071 19.42C150.511 20.2067 150.731 21.1 150.731 22.1ZM148.851 21.72C148.851 21.0267 148.698 20.4333 148.391 19.94C148.085 19.4333 147.665 19.0533 147.131 18.8C146.611 18.5333 146.031 18.4 145.391 18.4C144.471 18.4 143.685 18.6933 143.031 19.28C142.391 19.8667 142.025 20.68 141.931 21.72H148.851ZM154.454 22.48C154.454 21.36 154.68 20.38 155.134 19.54C155.587 18.6867 156.207 18.0267 156.994 17.56C157.794 17.0933 158.68 16.86 159.654 16.86C160.614 16.86 161.447 17.0667 162.154 17.48C162.86 17.8933 163.387 18.4133 163.734 19.04V17.04H165.574V28H163.734V25.96C163.374 26.6 162.834 27.1333 162.114 27.56C161.407 27.9733 160.58 28.18 159.634 28.18C158.66 28.18 157.78 27.94 156.994 27.46C156.207 26.98 155.587 26.3067 155.134 25.44C154.68 24.5733 154.454 23.5867 154.454 22.48ZM163.734 22.5C163.734 21.6733 163.567 20.9533 163.234 20.34C162.9 19.7267 162.447 19.26 161.874 18.94C161.314 18.6067 160.694 18.44 160.014 18.44C159.334 18.44 158.714 18.6 158.154 18.92C157.594 19.24 157.147 19.7067 156.814 20.32C156.48 20.9333 156.314 21.6533 156.314 22.48C156.314 23.32 156.48 24.0533 156.814 24.68C157.147 25.2933 157.594 25.7667 158.154 26.1C158.714 26.42 159.334 26.58 160.014 26.58C160.694 26.58 161.314 26.42 161.874 26.1C162.447 25.7667 162.9 25.2933 163.234 24.68C163.567 24.0533 163.734 23.3267 163.734 22.5ZM172.869 18.54V25C172.869 25.5333 172.983 25.9133 173.209 26.14C173.436 26.3533 173.829 26.46 174.389 26.46H175.729V28H174.089C173.076 28 172.316 27.7667 171.809 27.3C171.303 26.8333 171.049 26.0667 171.049 25V18.54H169.629V17.04H171.049V14.28H172.869V17.04H175.729V18.54H172.869ZM183.495 13.88C184.815 13.88 185.881 14.2533 186.695 15C187.508 15.7467 187.915 16.7467 187.915 18C187.915 19.4 187.481 20.44 186.615 21.12C185.748 21.7867 184.575 22.12 183.095 22.12L183.035 24.02H181.455L181.375 20.86H181.955C183.275 20.86 184.308 20.66 185.055 20.26C185.801 19.86 186.175 19.1067 186.175 18C186.175 17.2 185.935 16.5667 185.455 16.1C184.975 15.6333 184.328 15.4 183.515 15.4C182.688 15.4 182.035 15.6267 181.555 16.08C181.088 16.52 180.855 17.1267 180.855 17.9H179.135C179.135 17.1 179.315 16.4 179.675 15.8C180.035 15.1867 180.541 14.7133 181.195 14.38C181.861 14.0467 182.628 13.88 183.495 13.88ZM182.235 28.12C181.888 28.12 181.595 28 181.355 27.76C181.115 27.52 180.995 27.2267 180.995 26.88C180.995 26.5333 181.115 26.24 181.355 26C181.595 25.76 181.888 25.64 182.235 25.64C182.568 25.64 182.848 25.76 183.075 26C183.315 26.24 183.435 26.5333 183.435 26.88C183.435 27.2267 183.315 27.52 183.075 27.76C182.848 28 182.568 28.12 182.235 28.12Z" fill="#E8C4B8"/>
</svg>
